<svg xmlns="http://www.w3.org/2000/svg" width="2300" height="560" viewBox="0 0 2300 560" role="img" aria-labelledby="title desc">
  <title id="title">osysHome Devices class hierarchy</title>
  <desc id="desc">Hierarchy of classes under the root class Devices in osysHome.</desc>
  <defs>
    <style>
      .bg { fill: #f8fafc; }
      .title { font: 700 32px 'Segoe UI', Arial, sans-serif; fill: #0f172a; }
      .subtitle { font: 400 16px 'Segoe UI', Arial, sans-serif; fill: #475569; }
      .box { fill: #ffffff; stroke: #cbd5e1; stroke-width: 2; rx: 18; ry: 18; }
      .root { fill: #dbeafe; stroke: #60a5fa; }
      .mid { fill: #f8fafc; stroke: #94a3b8; }
      .label { font: 600 20px 'Segoe UI', Arial, sans-serif; fill: #0f172a; text-anchor: middle; dominant-baseline: middle; }
      .small { font: 600 15px 'Segoe UI', Arial, sans-serif; fill: #0f172a; text-anchor: middle; dominant-baseline: middle; }
      .tiny { font: 400 14px 'Segoe UI', Arial, sans-serif; fill: #64748b; text-anchor: middle; }
      .line { stroke: #94a3b8; stroke-width: 3; fill: none; stroke-linecap: round; }
    </style>
  </defs>

  <rect class="bg" x="0" y="0" width="2300" height="560"/>
  <text class="title" x="1150" y="48" text-anchor="middle">Class hierarchy under Devices</text>
  <text class="subtitle" x="1150" y="78" text-anchor="middle">Compact horizontal view from MCP server user-osyshome_prod</text>

  <!-- Root -->
  <rect class="box root" x="80" y="225" width="220" height="72" rx="18" ry="18"/>
  <text class="label" x="190" y="261">Devices</text>

  <!-- Root to level 2 -->
  <path class="line" d="M300 261 L430 261"/>
  <path class="line" d="M430 110 L430 414"/>
  <path class="line" d="M430 110 L520 110"/>
  <path class="line" d="M430 186 L520 186"/>
  <path class="line" d="M430 262 L520 262"/>
  <path class="line" d="M430 338 L520 338"/>
  <path class="line" d="M430 414 L520 414"/>

  <!-- Level 2 -->
  <rect class="box mid" x="520" y="78" width="220" height="64" rx="16" ry="16"/>
  <text class="label" x="630" y="110">Sensors</text>

  <rect class="box mid" x="520" y="154" width="220" height="64" rx="16" ry="16"/>
  <text class="label" x="630" y="186">Camera</text>

  <rect class="box mid" x="520" y="230" width="220" height="64" rx="16" ry="16"/>
  <text class="label" x="630" y="262">Controllers</text>

  <rect class="box mid" x="520" y="306" width="220" height="64" rx="16" ry="16"/>
  <text class="label" x="630" y="338">Counter</text>

  <rect class="box mid" x="520" y="382" width="220" height="64" rx="16" ry="16"/>
  <text class="label" x="630" y="414">OpenHasp</text>

  <text class="tiny" x="820" y="190">leaf class</text>
  <text class="tiny" x="820" y="342">leaf class</text>
  <text class="tiny" x="820" y="418">leaf class</text>

  <!-- Sensors to leaves -->
  <path class="line" d="M740 110 L860 110"/>
  <path class="line" d="M860 110 L860 72"/>
  <path class="line" d="M860 72 L2190 72"/>
  <path class="line" d="M920 72 L920 118"/>
  <path class="line" d="M1045 72 L1045 118"/>
  <path class="line" d="M1170 72 L1170 118"/>
  <path class="line" d="M1295 72 L1295 118"/>
  <path class="line" d="M1420 72 L1420 118"/>
  <path class="line" d="M1545 72 L1545 118"/>
  <path class="line" d="M1670 72 L1670 118"/>
  <path class="line" d="M1795 72 L1795 118"/>
  <path class="line" d="M1920 72 L1920 118"/>
  <path class="line" d="M2045 72 L2045 118"/>

  <rect class="box" x="860" y="118" width="120" height="52" rx="14" ry="14"/>
  <text class="small" x="920" y="144">Climat</text>

  <rect class="box" x="985" y="118" width="120" height="52" rx="14" ry="14"/>
  <text class="small" x="1045" y="144">CO2</text>

  <rect class="box" x="1110" y="118" width="120" height="52" rx="14" ry="14"/>
  <text class="small" x="1170" y="144">Leak</text>

  <rect class="box" x="1235" y="118" width="120" height="52" rx="14" ry="14"/>
  <text class="small" x="1295" y="144">Light</text>

  <rect class="box" x="1360" y="118" width="120" height="52" rx="14" ry="14"/>
  <text class="small" x="1420" y="144">Motion</text>

  <rect class="box" x="1485" y="118" width="120" height="52" rx="14" ry="14"/>
  <text class="small" x="1545" y="144">OpenClose</text>

  <rect class="box" x="1610" y="118" width="120" height="52" rx="14" ry="14"/>
  <text class="small" x="1670" y="144">Plant</text>

  <rect class="box" x="1735" y="118" width="120" height="52" rx="14" ry="14"/>
  <text class="small" x="1795" y="144">Power</text>

  <rect class="box" x="1860" y="118" width="120" height="52" rx="14" ry="14"/>
  <text class="small" x="1920" y="144">Smoke</text>

  <rect class="box" x="1985" y="118" width="120" height="52" rx="14" ry="14"/>
  <text class="small" x="2045" y="144">Button</text>

  <!-- Controllers to leaves -->
  <path class="line" d="M740 262 L860 262"/>
  <path class="line" d="M860 262 L860 224"/>
  <path class="line" d="M860 224 L2075 224"/>
  <path class="line" d="M920 224 L920 270"/>
  <path class="line" d="M1045 224 L1045 270"/>
  <path class="line" d="M1170 224 L1170 270"/>
  <path class="line" d="M1295 224 L1295 270"/>
  <path class="line" d="M1420 224 L1420 270"/>
  <path class="line" d="M1545 224 L1545 270"/>
  <path class="line" d="M1670 224 L1670 270"/>
  <path class="line" d="M1795 224 L1795 270"/>
  <path class="line" d="M1920 224 L1920 270"/>

  <rect class="box" x="860" y="270" width="120" height="52" rx="14" ry="14"/>
  <text class="small" x="920" y="296">Relay</text>

  <rect class="box" x="985" y="270" width="120" height="52" rx="14" ry="14"/>
  <text class="small" x="1045" y="296">Dimmer</text>

  <rect class="box" x="1110" y="270" width="120" height="52" rx="14" ry="14"/>
  <text class="small" x="1170" y="296">Curtains</text>

  <rect class="box" x="1235" y="270" width="120" height="52" rx="14" ry="14"/>
  <text class="small" x="1295" y="296">RGB</text>

  <rect class="box" x="1360" y="270" width="120" height="52" rx="14" ry="14"/>
  <text class="small" x="1420" y="296">TV</text>

  <rect class="box" x="1485" y="270" width="120" height="52" rx="14" ry="14"/>
  <text class="small" x="1545" y="296">Washer</text>

  <rect class="box" x="1610" y="270" width="120" height="52" rx="14" ry="14"/>
  <text class="small" x="1670" y="296">WLED</text>

  <rect class="box" x="1735" y="270" width="120" height="52" rx="14" ry="14"/>
  <text class="small" x="1795" y="296">Thermostats</text>

  <rect class="box" x="1860" y="270" width="120" height="52" rx="14" ry="14"/>
  <text class="small" x="1920" y="296">GroupRelay</text>

  <!-- Footer -->
  <text class="subtitle" x="1150" y="520" text-anchor="middle">Source: MCP user-osyshome_prod, root class Devices</text>
</svg>
